# xmcd
#
# Track frame offsets:
#	150
#	14826
#	28871
#	49144
#	63949
#	80173
#	93346
#	109272
#	127075
#	148573
#	164387
#	184803
#
# Disc length: 2758 seconds
#
# Revision: 0
# Processed by: cddbd v1.5.2PL0 Copyright (c) Steve Scherf et al.
# Submitted via: audiograbber 1.83.01
#
DISCID=ae0ac40c
DTITLE=Amy MacDonald - A Curious Thing
DYEAR=2010
DGENRE=Pop
TTITLE0=Don't Tell Me That It's Over
TTITLE1=Spark
TTITLE2=No Roots
TTITLE3=Love Love
TTITLE4=An Ordinary Life
TTITLE5=Give It All Up
TTITLE6=My Only One
TTITLE7=This Pretty Face
TTITLE8=Troubled Soul
TTITLE9=Next Big Thing
TTITLE10=Your Time Will Come
TTITLE11=What Happiness Means To Me
EXTD=
EXTT0=
EXTT1=
EXTT2=
EXTT3=
EXTT4=
EXTT5=
EXTT6=
EXTT7=
EXTT8=
EXTT9=
EXTT10=
EXTT11=
PLAYORDER=
